<svg width="1141" height="143" viewBox="0 0 1141 143" fill="none" xmlns="http://www.w3.org/2000/svg">
<path d="M128.95 -6.67572e-06V143H89.4998L25.0998 20.35L25.3998 20.3V143H-0.000194609V-6.67572e-06H42.4498L103.85 116.55L103.55 116.65V-6.67572e-06H128.95ZM144.336 -6.67572e-06H242.036V23.2H168.236L170.636 20.7V62.9L168.236 60.4H236.136V82.9H168.236L170.636 80.4V122.3L168.236 119.8H243.936V143H144.336V-6.67572e-06ZM340.219 -6.67572e-06H374.469L403.769 126.45H403.469L434.219 -6.67572e-06H461.319L423.969 143H385.869L356.719 21.85H356.969L327.369 143H289.269L252.469 -6.67572e-06H280.469L310.619 126.45H310.369L340.219 -6.67572e-06ZM568.403 -6.67572e-06V23.2H494.603L497.003 20.7V64.9L494.603 62.4H562.503V85.2H494.603L497.003 82.7V143H470.703V-6.67572e-06H568.403ZM606.183 143H579.883V-6.67572e-06H649.833C657.433 -6.67572e-06 664.299 1.03333 670.433 3.1C676.599 5.13332 681.866 8.01666 686.233 11.75C690.599 15.4833 693.966 19.9667 696.333 25.2C698.699 30.4333 699.883 36.25 699.883 42.65C699.883 48.45 698.883 53.7 696.883 58.4C694.916 63.1 692.116 67.1167 688.483 70.45C684.849 73.7833 680.483 76.35 675.383 78.15C670.283 79.95 664.599 80.85 658.333 80.85V80.75C661.299 80.75 664.083 81.2333 666.683 82.2C669.316 83.1667 671.783 84.6 674.083 86.5C676.383 88.4 678.516 90.75 680.483 93.55C682.449 96.35 684.266 99.6 685.933 103.3L703.733 143H674.683L656.833 103.35C655.566 100.583 654.216 98.2833 652.783 96.45C651.383 94.5833 649.716 93.1 647.783 92C645.883 90.8667 643.649 90.0667 641.083 89.6C638.516 89.1333 635.466 88.9 631.933 88.9H603.933L606.183 86V143ZM604.483 22.8L606.183 20.65V69.8L603.533 66.4H646.683C650.916 66.4 654.699 65.9 658.033 64.9C661.366 63.8667 664.183 62.4 666.483 60.5C668.783 58.6 670.533 56.2833 671.733 53.55C672.966 50.7833 673.583 47.65 673.583 44.15C673.583 40.7167 672.983 37.6833 671.783 35.05C670.583 32.3833 668.833 30.15 666.533 28.35C664.266 26.5167 661.449 25.1333 658.083 24.2C654.749 23.2667 650.916 22.8 646.583 22.8H604.483ZM736.861 143H709.461L760.761 -6.67572e-06H798.661L849.261 143H821.261L776.211 8.44999H782.561L736.861 143ZM736.761 109.35V86.95H824.561V109.35H736.761ZM983.512 -6.67572e-06H1025.91V143H999.612V15.1H1002.06L957.162 143H925.162L880.762 15.1H883.212V143H857.812V-6.67572e-06H900.962L944.712 126.15H939.262L983.512 -6.67572e-06ZM1041.41 -6.67572e-06H1139.11V23.2H1065.31L1067.71 20.7V62.9L1065.31 60.4H1133.21V82.9H1065.31L1067.71 80.4V122.3L1065.31 119.8H1141.01V143H1041.41V-6.67572e-06Z" fill="black"/>
</svg>
